<?xml version="1.0" encoding="UTF-8" standalone="no"?>
<svg
   version="1.1"
   viewBox="0 0 512 512"
   id="svg98"
   sodipodi:docname="logo.svg"
   width="512"
   height="512"
   inkscape:version="1.3 (0e150ed6c4, 2023-07-21)"
   xmlns:inkscape="http://www.inkscape.org/namespaces/inkscape"
   xmlns:sodipodi="http://sodipodi.sourceforge.net/DTD/sodipodi-0.dtd"
   xmlns="http://www.w3.org/2000/svg"
   xmlns:svg="http://www.w3.org/2000/svg">
  <defs
     id="defs98" />
  <sodipodi:namedview
     id="namedview98"
     pagecolor="#ffffff"
     bordercolor="#111111"
     borderopacity="1"
     inkscape:showpageshadow="0"
     inkscape:pageopacity="0"
     inkscape:pagecheckerboard="1"
     inkscape:deskcolor="#d1d1d1"
     inkscape:zoom="1.4794922"
     inkscape:cx="527.20792"
     inkscape:cy="311.93135"
     inkscape:window-width="3200"
     inkscape:window-height="1711"
     inkscape:window-x="-9"
     inkscape:window-y="-9"
     inkscape:window-maximized="1"
     inkscape:current-layer="svg98" />
  <g
     id="g98"
     transform="matrix(0.86683665,0,0,0.86683665,-191.60853,-193.49775)">
    <path
       fill="#403f3d"
       d="m 610.96,262.02 q -0.63,1.62 -0.27,3.18 0.13,0.54 0.32,0.02 0.34,-0.86 1.17,-1 l 1.21,0.78 -0.71,3.98 q -0.09,0.52 0.44,0.52 l 4.52,-0.07 q 3.1,1.24 4.2,5.18 1.89,6.75 2.47,9.63 0.94,2.14 1.73,4.28 c 0.84,2.31 2.16,3.67 4.45,4.17 q 1.89,0.4 6.89,1 c 0.46,7.96 1.37,17.67 -0.77,24.96 -1.69,5.77 -2.49,10.78 -6.38,15.72 -4.67,5.92 -10.32,15.94 -16.5,18.85 q -5.31,2.5 -10.41,5.2 a 0.52,0.52 0 0 1 -0.76,-0.46 q 0.08,-10.95 0.36,-21.92 c 0.07,-2.93 -0.38,-6.06 -0.44,-9.13 -0.03,-1.74 -0.62,-4.13 -0.54,-6.18 q 0.05,-1.4 -0.18,-2.46 -2.02,-9.16 -1.39,-18.55 a 1.38,1.39 30.6 0 0 -0.21,-0.83 q -1.2,-1.93 -1.37,-4.13 -0.04,-0.48 -0.32,-0.09 -1.47,2.04 -1.24,3.83 c 0.88,7 0.52,15.18 0.75,20.5 q 0.87,19.73 0.39,39.47 c -0.03,1.16 -0.39,2.42 -0.65,3.53 q -0.14,0.56 -0.6,0.23 c -3.56,-2.55 -4.98,-5.21 -7.61,-8.08 -5.14,-5.62 -9.16,-12.12 -12.86,-18.75 a 2.05,2.07 74.2 0 0 -1.9,-1.05 q -4.7,0.23 -9.18,-1.25 a 0.46,0.46 0 0 1 -0.32,-0.44 q 0,-0.79 0.8,-1.06 2.75,-0.96 6.6,-2.58 a 1.64,1.64 0 0 0 0.99,-1.67 l -0.43,-4.15 q -0.04,-0.41 -0.43,-0.58 c -1.74,-0.74 -3.17,-1.31 -4.2,-3.01 -2.65,-4.38 -3.09,-8.1 -4.48,-12.19 -1.04,-3.04 -1.64,-6.46 -0.95,-9.46 q 0.7,-3.05 0.4,-6.2 -0.01,-0.07 0.06,-0.08 l 0.31,-0.05 q 0.31,-0.04 0.36,0.27 0.37,2.16 1.48,4.08 0.23,0.39 0.5,0.03 2.16,-2.93 0.31,-6.13 a 0.37,0.37 0 0 1 0.29,-0.56 l 0.37,-0.04 q 0.56,-0.04 0.85,0.43 c 1.08,1.76 1.28,3.75 2.19,5.43 q 0.47,0.87 0.95,1.77 0.38,0.73 0.36,-0.09 -0.12,-3.86 -1.07,-7.57 -0.09,-0.36 0.26,-0.48 l 0.28,-0.11 q 0.2,-0.08 0.27,0.12 l 2.45,6.24 q 0.87,2.23 0.88,-0.17 l 0.09,-16.62 q 0,-0.51 0.27,-0.95 0.85,-1.4 -0.13,-2.78 -0.29,-0.4 -0.16,-0.88 1.8,-6.54 1.95,-8.45 0.32,-4.01 0.8,-5.87 0.15,-0.58 0.75,-0.59 c 4.79,-0.08 6.87,-3.11 10.55,-3.61 q 3.29,-0.44 6.6,-0.49 1.78,-0.03 4.1,0.93 3.3,1.37 7.79,2.02 3.48,0.51 3.7,4.46 z m -28.8774,1.7588 a 0.56,1.03 48.6 0 0 -1.1429,0.2611 0.56,1.03 48.6 0 0 -0.4023,1.1013 0.56,1.03 48.6 0 0 1.1429,-0.2611 0.56,1.03 48.6 0 0 0.4023,-1.1013 z M 610.56,268.72 q 0.48,-0.79 0.3,-1.74 -0.08,-0.38 -0.27,-0.04 -0.13,0.22 -0.33,0.4 -0.42,0.38 -0.18,0.9 l 0.21,0.46 q 0.12,0.27 0.27,0.02 z m -5.8576,29.1353 a 0.28,0.28 0 0 0 -0.2966,-0.2624 l -0.2395,0.0146 a 0.28,0.28 0 0 0 -0.2624,0.2966 l 0.6337,10.3606 a 0.28,0.28 0 0 0 0.2966,0.2624 l 0.2395,-0.0146 a 0.28,0.28 0 0 0 0.2624,-0.2966 z"
       id="path61" />
    <path
       fill="#403f3d"
       d="m 496.2,263.23 -2.48,0.65 -1.9,-1.54 q -0.42,-0.34 0.12,-0.39 2.52,-0.27 4.26,1.28 z"
       id="path62" />
    <path
       fill="#e6e6e5"
       d="m 610.96,262.02 q 1.07,0.56 1.22,2.2 -0.83,0.14 -1.17,1 -0.19,0.52 -0.32,-0.02 -0.36,-1.56 0.27,-3.18 z"
       id="path63" />
    <path
       fill="#403f3d"
       d="m 493.69,264.49 4.74,-0.25 q 0.54,-0.02 0.43,-0.55 -0.07,-0.34 -0.58,-0.46 c 1.32,-1.87 4.17,-0.01 5.78,0.76 a 0.78,0.78 0 0 1 -0.14,1.46 l -1.14,0.29 q -0.71,0.18 -0.73,-0.55 -0.02,-0.56 -0.48,-0.81 -0.33,-0.17 -0.66,0.02 l -0.59,0.34 q -0.39,0.22 -0.03,0.49 c 6.96,5.22 6.29,15.28 4.07,22.68 -3.87,12.97 -5.28,24.04 -4.68,37.49 q 0.12,2.62 1.02,6.82 c 1.32,6.13 0.91,12.71 2.72,18.7 q 3.65,12.03 5.88,24.4 0.18,1 0.91,2.95 0.75,2 0.22,3.19 -2.02,4.57 -2.1,9.56 a 0.12,0.12 0 0 1 -0.12,0.12 l -0.25,-0.02 q -0.36,-0.01 -0.34,-0.37 c 0.43,-7.52 -6.09,-18.55 -8.85,-24.93 q -8.86,-20.51 -11.33,-28.78 c -2.56,-8.57 -5.63,-17.33 -6.81,-26.22 -0.53,-3.93 -2.49,-10.28 -1.89,-14.82 1.26,-9.49 0.98,-19.98 6.49,-27.61 2.09,-2.9 5.1,-3.71 8.46,-3.9 z"
       id="path64" />
    <path
       fill="#e6e6e5"
       d="m 496.2,263.23 q 1.18,0.36 2.08,0 0.51,0.12 0.58,0.46 0.11,0.53 -0.43,0.55 l -4.74,0.25 q 0.28,-0.45 0.03,-0.61 z"
       id="path65" />
    <ellipse
       fill="#e6e6e5"
       cx="261.15652"
       cy="582.80157"
       transform="rotate(-41.4)"
       rx="1.03"
       ry="0.56"
       id="ellipse65" />
    <path
       fill="#e6e6e5"
       d="m 613.39,265 q 3.11,1.26 4.25,4.43 l -4.52,0.07 q -0.53,0 -0.44,-0.52 z"
       id="path66" />
    <path
       fill="#e6e6e5"
       d="m 610.56,268.72 q -0.15,0.25 -0.27,-0.02 l -0.21,-0.46 q -0.24,-0.52 0.18,-0.9 0.2,-0.18 0.33,-0.4 0.19,-0.34 0.27,0.04 0.18,0.95 -0.3,1.74 z"
       id="path67" />
    <path
       fill="#e6e6e5"
       d="m 637.38,293.69 q -5,-0.6 -6.89,-1 c -2.29,-0.5 -3.61,-1.86 -4.45,-4.17 q -0.79,-2.14 -1.73,-4.28 1.38,0.05 1.64,-1.27 0.19,-1.03 0.28,-1.49 a 1.09,1.09 0 0 1 1.76,-0.62 c 2.06,1.7 7.06,4.84 7.44,7.34 q 0.07,0.45 0.37,0.79 2.05,2.27 1.58,4.7 z"
       id="path68" />
    <rect
       fill="#f0f0f0"
       x="584.59088"
       y="333.93591"
       transform="rotate(-3.5)"
       width="0.80000001"
       height="10.94"
       rx="0.28"
       id="rect68" />
    <path
       fill="#403f3d"
       d="m 412.71,345.59 c -1.47,-0.42 -3.23,1.29 -4.74,0.83 q -0.99,-0.29 -0.08,-0.78 c 7.46,-3.96 14.69,-2.96 22.48,-0.85 q 3.59,0.97 7.87,3.46 c 3.41,1.98 6.69,3.56 9.7,6.13 q 12.73,10.89 15.99,14.94 5.58,6.93 11.12,13.87 c 3.71,4.65 7.53,11.19 9.8,14.64 q 4.22,6.38 6.1,9.72 c 6.2,11 8.74,23.36 6.8,35.91 -0.41,2.62 0.26,5.53 -1.6,7.78 q -0.28,0.33 -0.68,0.17 -1.55,-0.62 -4.52,-1 c -3.62,-0.47 -2.31,-6.13 -1.69,-8.91 0.43,-1.88 -1.21,-4.72 -1.62,-6.42 -2.11,-8.82 -3.85,-16 -8.69,-23.82 -2.52,-4.08 -6.52,-7.71 -10.08,-11.55 q -2.11,-2.29 -4.65,-3.95 c -5.08,-3.34 -10.2,-7.37 -15.27,-9.83 -6.31,-3.06 -14.15,-5.03 -19.27,-7.32 q -9.21,-4.11 -17.78,-10.26 c -4.02,-2.9 -4.97,-8.54 -5.87,-13.26 A 0.95,0.95 0 0 0 405,354.33 q -0.82,0.09 -0.29,1.17 0.39,0.8 0.68,1.65 a 0.81,0.8 63.9 0 1 -0.31,0.92 q -0.45,0.31 -1.02,0.28 -0.5,-0.02 -0.48,-0.52 l 0.23,-4.35 a 1.03,1.06 68.9 0 1 0.32,-0.7 q 1.52,-1.43 1.35,-3.7 a 0.64,0.64 0 0 1 1.23,-0.28 l 1.24,3.01 q 0.21,0.5 0.53,0.07 c 1.47,-1.98 1.76,-4.62 4.27,-5.83 q 0.58,-0.28 -0.04,-0.46 z"
       id="path69" />
    <path
       fill="#403f3d"
       d="m 526.32,434.03 q -0.48,-0.01 -0.65,0.16 c -4.17,4.51 -9.74,8.7 -15.94,9.75 q -0.24,0.04 -0.2,0.29 l 0.05,0.31 q 0.05,0.25 0.3,0.2 c 6.39,-1.15 12.31,-5.56 16.63,-10.2 q 4.21,-2.8 5.38,-4.3 1.34,-1.73 2.34,-2.76 c 7.07,-7.26 12.36,-16.39 19.1,-24.03 q 0.11,-0.13 0.23,-0.01 l 0.28,0.28 a 0.43,0.44 40.1 0 1 0.04,0.57 c -1.23,1.65 -3.53,3.64 -4.37,5.4 -1.82,3.85 -4.73,6.86 -7.3,10.98 -3.07,4.92 -6.49,8.5 -9.87,14.45 -0.59,1.04 -1.93,1.82 -2.25,2.73 q -0.98,2.83 -2.49,5.38 c -1.14,1.92 -3.09,2.59 -4.33,4.27 q -2.67,3.62 -6.77,10.56 -0.38,0.63 -0.85,0.07 l -0.64,-0.75 q -0.34,-0.41 -0.86,-0.53 -3.32,-0.77 -5.92,-3.05 -0.4,-0.35 -0.53,-0.88 -0.67,-2.81 -1.4,-5.61 -0.63,-2.4 -0.37,-5.18 0.48,-5.29 0.3,-12.38 c -0.12,-4.7 2.85,-10.92 4.95,-15.31 q 1.15,-2.4 1.71,-6.33 0.42,-2.93 3.06,-4.24 c 1.93,-0.97 2.13,-2.19 3.64,-3.3 3.04,-2.22 5.64,-4.86 8.77,-6.71 8.39,-4.95 15.13,-7.62 22.71,-10.81 a 17.56,17.42 30.9 0 1 5.25,-1.3 q 4.63,-0.41 9.91,-0.82 c 1.87,-0.14 3.77,0.6 6.06,0.32 a 1.15,1.16 88.2 0 0 1.01,-1.07 c 0.09,-1.4 -0.37,-4.93 1.4,-5.45 q 0.42,-0.12 0.52,0.3 0.75,3.29 1.34,6.54 c 0.8,4.5 4.01,4.42 5.17,7.71 q 0.68,1.91 1.63,0.13 l 1.19,-2.23 q 0.25,-0.46 0.77,-0.51 l 4.84,-0.47 a 0.49,0.5 6 0 1 0.51,0.64 q -0.13,0.41 -0.43,0.69 -0.29,0.28 -0.42,0.67 c -0.7,2.17 -1.57,5.94 -2.95,7.64 q -0.29,0.35 0.04,0.66 c 3.26,3.04 2.92,5.67 4.31,8.97 q 0.54,1.28 -0.81,0.85 -0.64,-0.21 -1.29,-3.29 -0.22,-1.06 -1.02,-1.78 l -0.96,-0.87 q -0.87,-0.79 -0.67,0.37 0.94,5.31 2.33,10.19 0.2,0.68 -0.05,1.07 -0.22,0.36 -0.62,0.43 -0.53,0.08 -0.79,-0.38 l -3.42,-5.81 q -1.07,-1.83 -1.17,0.29 l -0.23,4.97 q -0.11,2.15 -1.09,0.23 -0.99,-1.94 -1.6,-4.71 c -0.29,-1.36 -0.12,-3.28 -0.66,-4.67 q -0.94,-2.38 -1.43,0.13 c -0.84,4.18 -1.91,8.24 -2.41,12.72 q -1.08,9.81 -3.85,19.3 c -0.81,2.81 -1.81,5.01 -3.86,7.32 -4.15,4.67 -7.62,9.95 -12.28,13.75 q -5.44,4.44 -9.25,6.53 -7.53,4.14 -10.12,4.33 c -5.7,0.41 -9.7,2.29 -15.03,-0.02 q -1.87,-0.81 -0.8,-2.56 c 3.78,-6.13 7.63,-14.44 9.97,-18.76 q 7.84,-14.53 16.72,-28.45 0.07,-0.1 1.63,-2.86 c 2.23,-3.94 5.14,-6.72 6.89,-10.9 1.5,-3.59 4.38,-7.35 6.52,-10.64 q 0.14,-0.21 -0.06,-0.35 l -0.01,-0.01 q -0.2,-0.14 -0.35,0.05 z"
       id="path70" />
    <path
       fill="#e6e6e5"
       d="m 571.74,374.86 q 0.12,-0.22 0.34,-0.09 l 0.28,0.17 q 0.01,0.01 0,0.02 -1.37,2.15 -2.15,4.57 -0.14,0.44 -0.5,0.15 l -0.27,-0.22 q -0.16,-0.13 -0.06,-0.31 z"
       id="path71" />
    <path
       fill="#e6e6e5"
       d="m 526.32,434.03 0.19,0.51 c -4.32,4.64 -10.24,9.05 -16.63,10.2 q -0.25,0.05 -0.3,-0.2 l -0.05,-0.31 q -0.04,-0.25 0.2,-0.29 c 6.2,-1.05 11.77,-5.24 15.94,-9.75 q 0.17,-0.17 0.65,-0.16 z"
       id="path72" />
    <path
       fill="#403f3d"
       d="m 697.54,553.32 q -1.34,-1.88 -3.3,-2.54 c -2.85,-0.97 -5.51,-2.18 -8.39,-3.08 -2.11,-0.65 -5.28,-2.23 -6.68,-3.94 -2.8,-3.45 -6.51,-6.08 -10.3,-8.93 -10.51,-7.91 -27.31,-9.79 -40,-9.01 -0.84,0.05 -1.45,0.5 -2.12,0.63 -3.38,0.63 -8.76,0.01 -12.95,-0.72 -6.53,-1.13 -13.05,-2.03 -19.56,-3.32 -5.18,-1.02 -10.49,-3.25 -15.92,-4.84 a 0.81,0.82 27.7 0 1 -0.4,-1.3 q 1.62,-1.97 2.51,-4.53 c 1.28,-3.66 3.58,-4.72 5.7,-7.57 4.35,-5.83 9.47,-9.61 15.58,-13.96 2.54,-1.82 5.81,-3.11 8.59,-5.07 3.45,-2.45 6.13,-3.76 9.59,-5.35 1.61,-0.74 1.8,-1.55 2.68,-3 q 2.24,-3.66 7.05,-4.51 c 4.04,-0.7 8,-1.73 11.91,-2.93 a 0.32,0.33 46.5 0 0 0.02,-0.62 q -0.75,-0.26 -1.47,0.15 -0.35,0.2 -0.75,0.25 -2.03,0.24 -9.33,1.39 -5.73,0.89 -8.4,4.99 -0.28,0.44 -0.78,0.6 c -2.4,0.82 -4.47,2.42 -6.51,3.37 -4.65,2.13 -8.73,5.14 -13.21,7.31 -8.6,4.19 -16.16,10.6 -22.74,17.28 -2.18,2.21 -4.58,4.09 -6.92,6.15 -5.83,5.16 -5.67,-6.83 -6.5,-9.53 -0.58,-1.9 -0.42,-3.58 -0.76,-5.47 -0.51,-2.8 0.88,-4.18 1.06,-6.75 0.38,-5.62 3.23,-9.17 5.89,-13.5 5.68,-9.2 13.02,-16.05 22.77,-20.76 q 5.73,-2.76 7.58,-3.84 c 3.31,-1.94 6.34,-3.97 9.99,-5.29 q 7.04,-2.54 13.78,-5.26 a 2.84,2.86 49.7 0 1 2.55,0.2 c 1.56,0.93 2.89,2.2 4.5,3.02 7.04,3.59 13.78,7.86 21.72,9.36 q 5.42,1.03 10.71,2.64 c 5.66,1.71 12.54,6.29 14.89,12.3 q 0.87,2.2 -0.04,4.85 -1.32,3.86 -3.24,5.89 -4.21,4.46 -7.62,10.08 a 1.82,1.82 0 0 0 0.35,2.31 q 0.71,0.63 1.17,1.44 a 0.56,0.56 0 0 1 -0.41,0.84 q -1.97,0.26 -2.13,-1.74 a 0.2,0.2 0 0 0 -0.33,-0.13 l -6.8,6.26 q -0.35,0.32 -0.22,0.78 0.18,0.61 0.61,1.14 a 0.79,0.8 63.7 0 1 -0.43,1.27 l -11.71,2.93 q -0.64,0.16 0.02,0.22 1.88,0.17 4.06,-0.03 c 1.35,-0.12 3.84,-0.95 5.91,-0.84 q 0.52,0.03 0.17,0.42 -2.1,2.33 -4.22,2.5 -4.14,0.34 -16.15,0.17 -1.27,-0.02 -2.67,0.37 c -2.74,0.75 -5.28,0.24 -8.01,1.37 q -0.65,0.26 -0.03,0.59 0.58,0.31 0.93,0.87 0.37,0.59 -0.32,0.63 c -1.96,0.12 -3.77,0 -5.63,0.38 q -5.9,1.22 -11.09,1.95 -2,0.28 0,0.53 c 2.92,0.36 5.93,-0.85 8.61,-0.92 7.83,-0.22 12.28,0.47 17.6,0.94 6.04,0.53 12.38,1.39 18.2,3.35 3.12,1.05 6.47,1.77 9.29,3.03 10.88,4.86 24.68,14.88 29.93,25.84 q 0.92,1.94 2.43,3.22 c 2.13,1.82 4.96,4.49 5.5,6.35 q 0.72,2.48 -1.22,0.77 -1.64,-1.46 -4.59,-1.65 z m -71.59,-47.96 -2.68,-2.53 q -0.8,-0.75 -0.41,0.27 0.79,2.06 2.83,2.7 a 0.26,0.26 0 0 0 0.26,-0.44 z m -21.91,8.06 q 2.28,0.31 3.72,-1.35 0.27,-0.31 -0.1,-0.5 -0.21,-0.11 -0.45,-0.11 -0.31,0 -0.76,0.31 -2.94,2.09 -6.56,2.01 -0.08,0 -0.1,0.07 -0.05,0.16 -0.02,0.31 0.05,0.23 0.28,0.28 1.71,0.31 3.11,-0.78 a 1.15,1.16 30 0 1 0.88,-0.24 z m -6.77,1.83 -2.01,0.48 q -0.8,0.19 -0.01,0.43 1.33,0.39 2.29,-0.36 a 0.31,0.31 0 0 0 -0.27,-0.55 z"
       id="path73" />
    <path
       fill="#403f3d"
       d="m 697.54,553.32 7.75,4.73 q 0.59,0.36 0.52,-0.33 l -0.38,-3.74 q -0.16,-1.53 1.23,-0.84 c 3.61,1.79 6.85,3 7.08,7.67 a 1.13,1.13 0 0 0 1.18,1.07 c 4.74,-0.24 7.71,-3.08 12.86,-2.28 q 1.12,0.17 6.53,1.53 c 5.97,1.49 11.15,5.58 12.66,11.72 q 0.48,1.96 -0.05,5.81 c -0.37,2.7 -0.22,5.57 -0.63,8.12 -2.72,16.85 -6.67,29.25 -11.27,43.3 -1.31,4 -3.47,8.5 -5.04,12.87 q -1.07,2.95 -2.11,5.1 -5.76,11.92 -11.43,23.89 c -1.28,2.72 -4,4.62 -5.33,7.55 -1.05,2.34 -1.57,4.31 -3.32,6.33 q -4.63,5.34 -7.31,11.91 c -1.06,2.62 -5.22,6.69 -7.39,9.81 -2.07,2.97 -4.82,5.62 -6.77,8.29 -5.4,7.44 -10.94,13.25 -16.76,19.66 -7.76,8.53 -15.45,15.42 -24.02,22.36 -8.97,7.27 -19.65,13.84 -29.78,20.4 -3.15,2.03 -5.99,4.09 -9.97,4.09 q -92.55,-0.11 -185.1,0.15 a 1.71,1.66 61.3 0 1 -0.94,-0.29 c -3.61,-2.5 -6.37,-5.73 -9.89,-7.99 q -12.41,-7.97 -23.08,-18.09 c -5.14,-4.87 -14.23,-12.6 -20.22,-20.18 -2.41,-3.05 -7.79,-7.11 -11.08,-11.33 -4.81,-6.17 -10.04,-12.05 -15.07,-18.05 q -3.66,-4.37 -7.31,-9.97 c -3.02,-4.65 -6.28,-9.11 -8.97,-13.89 q -5.1,-9.06 -10.46,-17.96 c -4.11,-6.81 -6.77,-14.2 -10.18,-21.33 -2.27,-4.77 -3.86,-10.12 -6.62,-16.09 -2.88,-6.23 -4.89,-13.69 -6.24,-20.39 q -3.61,-17.98 -4.74,-25.17 c -0.5,-3.26 -0.7,-7.86 1.09,-11.08 1.58,-2.84 4.5,-6.92 7.79,-7.92 3.96,-1.21 7.82,-2.91 11.75,-3.62 5.71,-1.03 11.86,-1.18 17.42,-2.69 6.13,-1.67 12.53,-2.53 19.02,-2.77 q 12.44,-0.46 24.86,-1.13 0.56,-0.03 0.34,-0.54 -4.42,-10.1 -1.06,-20.32 c 1.15,-3.48 3.59,-4.98 6.62,-6.7 a 1.58,1.57 58.9 0 0 0.55,-2.23 q -0.64,-0.99 -0.76,-2.09 a 2.1,2.18 52.7 0 1 0.16,-1.03 c 1.43,-3.37 -0.15,-5.44 0.16,-8.54 0.48,-4.92 0.29,-9.73 2.06,-14.27 3.79,-9.71 11.84,-19.45 18.85,-27.1 2.11,-2.31 4.39,-4.75 7.21,-5.98 5.44,-2.37 13.56,-0.61 17.2,4.39 q 3.38,4.63 3.44,10.37 0.01,0.49 0.46,0.66 4.53,1.79 9.02,3.57 c 3.25,1.29 7.2,1.93 10.18,3.07 1.22,0.46 1.88,2.22 2.5,2.99 q 1.87,2.33 3.92,4.52 0.35,0.37 0.85,0.38 c 2.88,0.03 5.23,-0.56 7.81,1.05 q 0.45,0.28 0.92,0.04 c 1.83,-0.91 3,-2.5 4.7,-3.3 q 2.79,-1.31 5.62,-2.48 c 3.91,-1.62 8.04,-2.29 12.21,-3.13 2.13,-0.44 4.98,-0.48 7.48,-0.97 q 1.88,-0.37 2.99,-0.44 15.4,-0.95 29.94,3.8 3.3,1.07 7.22,3.26 c 3.11,1.73 6.37,3.34 9.08,5.44 11.12,8.62 17.56,19.83 22.5,32.81 a 2.26,2.27 81.4 0 0 1.98,1.45 q 8.52,0.52 17.53,0.01 c 6.37,-0.37 11.85,2.35 17.97,3.82 q 5.64,1.36 8.48,2.14 8.39,2.3 13.05,2.48 c 3.29,0.13 7.7,-2.1 11.73,-1.94 6.79,0.26 12.46,2.28 19.4,4.21 4.56,1.27 8.27,3.68 12.87,4.9 q 6.44,1.71 8.22,8.18 c 1.83,6.67 2.78,11.01 1.39,16.97 q -0.36,1.51 1.17,1.25 l 12.42,-2.17 a 1.54,1.53 76.4 0 0 1.2,-1.97 c -1.56,-4.97 -2.74,-10.18 -4.85,-14.69 -3.27,-7.01 -5.72,-10.31 -12.19,-14.17 -2.77,-1.65 -6.44,-5.01 -10.36,-6.09 q -3.24,-0.89 -5.35,-1.54 c -5.9,-1.81 -12.48,-2.32 -18.53,-3.07 q -1,-0.12 -1.46,-1.01 l -0.16,-0.29 q -0.49,-0.93 0.56,-0.98 c 3.97,-0.18 7.12,-0.23 11.1,1.16 7.06,2.47 15.21,3.38 21.57,7.61 q 3.46,2.3 7.02,4.44 2.17,1.31 3.37,2.77 c 1.26,1.55 2.48,4.71 4.44,5.28 q 7.48,2.19 14.98,4.79 z m -260.51,-0.35 q 1.28,0.66 3.29,1.45 c 2.06,0.82 3.51,2.09 5.27,3.22 q 1.37,0.87 0.18,-0.23 -6.21,-5.74 -14.49,-7.75 -1.73,-0.42 -5.13,-2.16 -0.45,-0.24 -0.68,-0.69 c -1.59,-3.05 -4.26,-5.55 -5.75,-7.92 -4.89,-7.81 -7.62,-17 -6.7,-26.29 0.55,-5.55 0.12,-10.36 2.75,-15.69 2.4,-4.85 4.42,-9.49 6.64,-14.24 a 0.1,0.09 23.7 0 0 -0.05,-0.12 l -0.22,-0.1 a 0.33,0.33 0 0 0 -0.44,0.16 c -2.25,4.83 -5.3,9.04 -7.02,14 q -1.42,4.1 -2.99,8.14 -0.76,1.96 -1.88,9.26 c -0.54,3.52 -0.01,6.59 0.6,10 0.55,3.12 2.1,5.6 3.05,8.47 q 0.57,1.72 1.32,3.38 c 0.85,1.89 2.55,2.98 3.27,5.25 q 0.15,0.49 0.58,0.76 c 1.94,1.25 5.08,3.66 5.46,6.11 q 0.02,0.13 0.15,0.12 0.14,-0.02 0.27,-0.03 0.08,-0.01 0.15,0.04 l 8.09,5.19 a 1.01,1.03 2.9 0 1 0.39,0.44 q 0.83,1.72 1.91,3.31 c 1.63,2.41 3.95,2.7 4.55,6.52 a 0.23,0.22 58.1 0 0 0.41,0.1 l 0.46,-0.67 a 0.53,0.53 0 0 0 0.06,-0.49 q -1.02,-2.85 -1.98,-5.63 c -0.48,-1.38 -1.37,-2.04 -2.21,-3.06 q -1.71,-2.09 0.69,-0.85 z m 63.01,-55.38 c -6.61,0.52 -13.35,-0.07 -19.59,1.84 q -2.31,0.71 -4.64,1.33 c -2.02,0.54 -6.85,0.98 -8.79,2.99 -2.35,2.44 -5.39,10.43 -1.39,13.34 3.35,2.45 5.85,0.91 9.13,-1.42 14.14,-10.06 34.33,-6.91 48.09,1.93 5.01,3.22 8.36,8.05 12.38,12.37 q 0.62,0.66 1.53,0.68 l 8.29,0.18 q 0.4,0 0.26,-0.36 c -4.7,-12.86 -10.61,-21.44 -22.9,-27.21 -3.19,-1.49 -7.14,-2.5 -10.73,-3.7 -2.44,-0.81 -6.28,-1.22 -9.28,-3.3 q -0.59,-0.41 -1,0.17 l -0.45,0.64 q -0.34,0.47 -0.91,0.52 z m -63.78,49.24 c -2.82,-3.1 -6.67,-5.03 -9.81,-7.83 -2.14,-1.92 -4.5,-3.48 -6.36,-5.59 q -1.61,-1.83 -3.17,-3.71 a 0.03,0.03 0 0 0 -0.05,0.02 q 0.01,0.16 -0.01,0.32 -0.02,0.18 0.07,0.34 3.13,5.39 8.33,8.81 c 1.19,0.78 1.67,2.14 2.86,2.95 q 4.01,2.75 7.95,4.93 0.8,0.43 0.19,-0.24 z m -22.45,-2.09 -2.59,-1.76 q -0.49,-0.33 -0.38,0.25 0.64,3.3 3.93,3.34 0.61,0 0.7,-0.6 0.24,-1.59 -0.54,-3.72 -0.49,-1.33 -1.08,-6.17 0,-0.06 -0.06,-0.05 l -0.26,0.04 q -0.17,0.03 -0.15,0.2 l 0.49,4.73 q 0.05,0.51 0.18,1 l 0.57,2.17 a 0.53,0.53 0 0 1 -0.81,0.57 z m 149.25,15.9 c 6.69,1.01 15.19,5.64 20.53,10.21 2,1.72 3.96,0.06 5.52,-1.25 a 1.24,1.26 74.2 0 0 0.45,-0.79 c 1.64,-10.21 -17.52,-23.74 -26.03,-25.84 -2.97,-0.74 -6.14,-0.42 -9.27,-0.33 -7.61,0.23 -12.92,2.44 -19.42,6.71 q -6.27,4.11 -7.69,5.54 c -7.1,7.13 -14.27,15.45 -18.65,24.58 a 0.61,0.61 0 0 0 0.61,0.87 l 12.14,-1.17 a 1.73,1.72 19.3 0 0 1.07,-0.51 c 9.86,-10 21.48,-22.34 37.35,-18.65 q 1.35,0.32 3.39,0.63 z m -177.87,8.32 q -4.93,-1.08 -9.97,-2.48 -2.79,-0.78 -5.54,-0.55 -5.75,0.48 -11.51,0.99 -0.07,0 -0.07,0.07 0,0.13 -0.01,0.27 -0.01,0.21 0.2,0.23 2.85,0.17 5.71,0.07 c 0.87,-0.03 1.92,0.72 3.03,0.76 q 4.49,0.16 8.96,0.55 c 1.11,0.09 1.96,0.63 3.03,0.61 q 2.81,-0.05 5.52,0.45 c 2.31,0.51 4.73,0.47 6.94,0.87 q 3.87,0.71 7.81,0.75 c 2.34,0.03 4.46,0.64 6.71,1.07 4.77,0.92 9.88,0.85 14.75,1.09 q 4.53,0.23 19.79,2.55 4.76,0.72 12.07,1.04 9.05,0.4 18.07,2.14 1.29,0.25 0.39,-0.71 -1.48,-1.57 -3.98,-2.81 -2.11,-1.04 -5.15,-6.27 -0.23,-0.41 -0.24,-0.89 c -0.01,-2.85 -0.58,-7.76 1.51,-10 1.32,-1.4 3.42,-1.55 5.2,-2.18 a 2.04,2.03 68.1 0 1 2.52,1.08 q 1.39,3.06 3.23,5.78 c 1.55,2.28 4.03,3.76 6.07,5.81 a 1.29,1.28 67.6 0 0 0.92,0.39 q 2.89,0.02 5.16,1.81 0.38,0.29 0.85,0.24 2.96,-0.3 5.51,-1.82 0.5,-0.31 0.91,0.12 0.68,0.71 1.63,0.35 a 1.74,1.74 0 0 0 1.04,-2.19 c -1.12,-3.3 0.42,-7.09 -4.75,-7.62 q -0.53,-0.05 -0.76,0.43 c -1.99,4.3 -5.96,8.56 -10.17,3.58 -3.26,-3.86 -6.69,-7.19 -9.3,-11.51 -1.75,-2.89 -6.36,-8.28 -9.5,-9.5 q -0.44,-0.17 -0.78,0.16 c -2.73,2.66 0.31,7.15 2.65,9.2 a 1.1,1.12 20.2 0 1 0.38,0.84 c -0.03,3 -2.08,4.93 -2.65,6.83 q -1.2,3.96 0.26,8.07 a 0.46,0.46 0 0 1 -0.45,0.61 c -2.11,-0.09 -6.13,-5.23 -7.64,-6.93 a 1.25,1.25 0 0 0 -1.67,-0.19 q -6.86,4.94 -14.94,8.78 c -2.69,1.27 -5.89,-0.04 -7.95,-1.87 -3.36,-2.96 -5.55,-14.13 -5.44,-18.44 q 0.01,-0.49 -0.48,-0.46 -8.57,0.64 -10.82,0.15 -3.9,-0.86 -7.93,-0.53 -0.49,0.04 -0.74,0.47 c -2.4,4.13 -3.21,9.1 -5.02,13.57 -0.69,1.72 -0.92,3.54 -1.37,5.38 a 0.75,0.76 9.6 0 1 -0.79,0.57 z m 57.3082,-24.8201 a 2.24,0.19 2.3 0 0 -2.2306,-0.2797 2.24,0.19 2.3 0 0 -2.2458,0.0999 2.24,0.19 2.3 0 0 2.2306,0.2797 2.24,0.19 2.3 0 0 2.2458,-0.0999 z M 592.87,548.23 c 4.63,2.5 7.26,6.19 8.64,11.2 q 0.09,0.33 0.31,0.06 l 6.22,-7.55 a 0.31,0.31 0 0 0 -0.14,-0.49 c -3.01,-1.07 -6.13,-1.05 -8.98,-2.09 q -2.81,-1.04 -5.66,-2.04 a 0.33,0.33 0 0 0 -0.41,0.18 l -0.13,0.3 q -0.12,0.29 0.15,0.43 z m 96.65,5.25 -4.66,-3.25 a 0.06,0.06 0 0 0 -0.08,0.02 l -0.02,0.03 a 2.78,1.66 34.9 0 0 1.33,2.95 l 0.19,0.14 a 2.78,1.66 34.9 0 0 3.23,0.23 l 0.03,-0.03 a 0.06,0.06 0 0 0 -0.02,-0.09 z m -62.33,15.69 c -2.6,1.13 -7.86,-0.08 -11.31,1.14 -3.46,1.23 -6.23,4.75 -8.79,7.22 q -0.28,0.27 -0.27,0.49 a 0.45,0.45 0 0 0 0.47,0.43 q 4.57,-0.16 9.18,-0.16 c 1.07,0 2.15,-0.68 3.03,-0.63 5.42,0.3 10.74,-0.93 15.84,-0.99 8.56,-0.1 17.24,-1.51 25.88,-2.36 a 0.59,0.58 87.3 0 0 0.53,-0.59 q -0.09,-10.06 -5.52,-18.46 a 1.2,1.18 80 0 0 -0.72,-0.51 c -3.11,-0.74 -10.37,3.97 -13.62,6.07 q -0.51,0.34 -3.3,2.88 c -2.77,2.54 -6.81,3.47 -11.4,5.47 z M 450.58,560.5 q -0.31,-0.19 -0.61,-0.15 -0.22,0.03 -0.04,0.15 1.1,0.71 1.71,0.88 0.4,0.1 0.18,-0.24 -0.29,-0.46 -0.86,-0.51 -0.2,-0.02 -0.38,-0.13 z M 426.2,766.34 q -1.01,-0.66 -2.12,-1.06 c -18.86,-6.82 -31.89,-21.58 -46.39,-34.97 -2.39,-2.21 -4.42,-4.87 -6.71,-7.28 -3.66,-3.87 -6.81,-8.02 -10.54,-11.8 q -3.46,-3.49 -5.55,-6.26 c -7.57,-10.07 -15.65,-19.84 -21.1,-31.27 q -2.19,-4.6 -4.99,-9.67 c -5.67,-10.27 -9.43,-21.29 -13,-33.48 -1.33,-4.52 -2.39,-9.57 -3.56,-14.37 -2.46,-10.08 -3.23,-20.24 -3.53,-30.47 q -0.14,-4.95 -1.44,-7.15 -2.17,-3.7 -6.82,-4.82 -0.4,-0.1 -0.81,0 l -2.86,0.71 q -0.43,0.11 -0.73,0.44 c -1.8,1.92 -0.89,3.14 -0.65,5.28 q 1.84,16.57 5.7,32.76 c 2.04,8.54 5.42,17.18 8.52,25.69 3,8.21 7.88,16.01 11.34,24.37 1.83,4.45 4.6,8.43 6.76,12.82 0.78,1.59 1.86,2.78 2.92,4.15 1.76,2.29 2.85,5.05 4.22,7.62 1.47,2.77 3.69,5.25 5.5,7.99 q 1.6,2.42 2.79,3.9 11.88,14.79 17.24,20.39 c 5.22,5.45 10.05,11.08 14.61,15.39 9.68,9.16 19.66,18.45 31.27,25.17 5.66,3.28 11.28,4.06 18.24,5.81 q 1.17,0.3 1.86,0.13 0.01,0 0.01,0.01 0,0 0,0 0,0 -0.02,0 -0.03,0 -0.05,0 -0.06,0 -0.11,-0.03 z M 672.25,631.46 a 0.21,0.23 57 0 1 -0.07,0.29 c -11.55,7.71 -26.01,11.76 -39.93,14.05 q -19.9,3.27 -26,3.5 -23.48,0.85 -46.96,0.03 c -6.79,-0.24 -13.73,-0.96 -20.59,-1.63 -7.17,-0.7 -18.15,-1.23 -27.18,-2.31 -5.05,-0.61 -11.49,-0.64 -17.16,-1.68 q -5.32,-0.99 -8.8,-1.34 c -6.82,-0.7 -13.29,-2.35 -19.46,-3.36 -8.57,-1.4 -15.84,-3.25 -23.83,-4.86 -13.15,-2.64 -25.74,-6.75 -38.61,-10.37 -6.96,-1.96 -15.61,-5.45 -24,-7.15 -4.3,-0.87 -8.04,-3.35 -12.06,-4.32 q -4.53,-1.08 -0.92,1.86 5.32,4.35 11.58,8.79 c 3.04,2.16 6.05,4.77 9.19,7.03 6.48,4.66 13.62,11 18.88,14.2 q 3.78,2.29 6.29,4.16 4.08,3.01 6.21,4.16 8.89,4.82 17.69,9.8 c 3.23,1.82 6.85,3.33 10.26,5.09 q 4.09,2.11 7.81,3.49 c 6.27,2.32 12.3,5.22 18.75,7.12 q 3.78,1.1 7.5,2.37 c 4.96,1.69 10.24,2.68 15.35,4.28 4.28,1.35 8.44,2.07 12.71,3.15 q 5.6,1.4 9.62,1.98 c 14.1,2.02 28.26,3.89 42.48,4.73 13.24,0.78 26.27,1.28 44.58,0.73 1.82,-0.06 3.72,-0.43 5.67,-0.5 q 18.74,-0.62 37.02,-4.68 c 9.5,-2.1 18.44,-6.33 26.79,-11.19 q 0.22,-0.13 0.35,0.09 l 0.15,0.26 q 0.12,0.21 -0.09,0.34 c -3.48,2.02 -6.67,4.56 -10.16,6.17 q -12.9,5.92 -20.31,7.77 -10.81,2.7 -35.94,6.4 c -2.97,0.43 -6.19,0.51 -9.32,0.89 -6.24,0.75 -11.82,0.86 -17.81,0.95 -0.88,0.01 -1.81,0.48 -2.68,0.49 -8.85,0.13 -19.99,0.56 -30.9,-0.33 -8.08,-0.66 -16.47,-0.41 -27.64,-1.27 -12.35,-0.94 -24.71,-3.27 -36.7,-5.66 q -22.88,-4.56 -44.96,-12.07 c -1.42,-0.48 -3.33,-0.78 -4.91,-1.46 q -6.21,-2.64 -12.63,-4.68 -3.84,-1.22 -14.66,-6.56 c -9.44,-4.66 -19.46,-10.65 -29.17,-16 q -1.07,-0.59 -0.34,0.39 0.82,1.09 2.42,2.4 c 10.41,8.49 21.23,18.4 31.24,25.48 q 9.98,7.06 20.58,13.19 c 3.46,1.99 6.62,4.33 10.2,6.01 6.23,2.93 12.23,6.36 18.48,8.96 6.43,2.68 12.85,5.77 19.3,7.94 q 14.1,4.73 28.3,9.16 c 5.48,1.72 11.15,2.65 16.83,3.88 16.99,3.69 35.07,5.96 52.45,6.15 1.01,0.02 2.57,0.65 3.36,0.51 q 2.98,-0.51 6,-0.52 20.19,-0.08 40.1,-3.17 c 7.76,-1.2 16.98,-3.43 25.49,-5.11 2.7,-0.53 4.95,-1.68 7.43,-2.78 7.26,-3.22 10.97,-10.34 15.51,-15.67 3.66,-4.32 7.17,-8.24 10.41,-13.17 3.1,-4.71 7.15,-9.22 9.65,-14.23 q 1.69,-3.4 3.05,-5.27 c 5.05,-6.97 8.62,-14.02 12.64,-22.55 q 0.06,-0.13 5.09,-10.14 c 4.36,-8.69 6.43,-16.57 10.43,-27.42 q 2.49,-6.73 7.23,-28.25 0.79,-3.59 1.54,-13.3 0.04,-0.55 -0.49,-0.45 -2.45,0.47 -7.33,1.77 -7.37,1.96 -35.03,6.07 -10.32,1.53 -20.72,2.41 -7.31,0.62 -14.6,1.45 c -3.64,0.41 -7.75,0.39 -11.63,0.81 -5.7,0.62 -10.06,0.78 -15.16,0.96 -0.8,0.03 -1.5,0.41 -2.36,0.45 q -8.9,0.42 -17.81,0.61 c -0.89,0.01 -1.74,0.42 -2.69,0.46 q -11.5,0.59 -23.02,0.45 c -1.74,-0.02 -3.3,0.57 -5.08,0.58 q -34.07,0.17 -68.15,0.04 c -1.31,0 -2.48,-0.49 -3.69,-0.51 q -17.56,-0.27 -35.13,-0.57 c -1.2,-0.02 -2.4,-0.45 -3.68,-0.49 q -5.53,-0.17 -11.06,-0.44 c -3.81,-0.19 -9.23,-0.95 -13.94,-0.96 -1.54,0 -3.07,-0.48 -4.49,-0.55 q -5.77,-0.28 -21.44,-1.89 c -3.32,-0.34 -7.65,-0.28 -11.74,-0.79 q -4.8,-0.61 -9.65,-0.77 c -1.71,-0.06 -3.64,-0.51 -5.68,-0.66 q -4.58,-0.33 -11.68,-1.18 c -8.77,-1.05 -18.57,-1.59 -25.82,-2.43 q -3.66,-0.42 -11.73,-2.03 a 0.43,0.44 13.9 0 0 -0.51,0.32 l -0.07,0.24 a 0.7,0.71 16.6 0 0 0.45,0.84 q 8.22,2.89 16.14,6.77 c 5.28,2.58 10,4.62 14.97,7.01 7.63,3.66 14.8,6.01 22.49,8.6 2.06,0.69 3.69,1.97 5.81,2.63 13.2,4.1 27.52,10.12 38.96,13.66 q 12.91,3.98 26.06,7.08 c 4.15,0.98 9.67,2.75 14.67,3.63 6.45,1.13 12.45,2.85 19.15,3.74 10.33,1.37 21.9,3.56 30.82,4.86 11.1,1.61 22.26,3.6 33.47,4.19 6.9,0.36 13.52,1.38 20.57,1.07 1.77,-0.08 3.44,0.56 5.01,0.57 9.95,0.08 20.33,0.56 30.24,-0.35 9.55,-0.88 18.55,-1.2 27.78,-3.6 5.4,-1.41 10.66,-2.33 15.68,-4.73 q 4.52,-2.16 8.99,-4.41 0.1,-0.05 0.15,0.04 z"
       id="path74" />
    <path
       fill="#fdfdfd"
       d="m 437.03,552.97 q -2.4,-1.24 -0.69,0.85 c 0.84,1.02 1.73,1.68 2.21,3.06 q 0.96,2.78 1.98,5.63 a 0.53,0.53 0 0 1 -0.06,0.49 l -0.46,0.67 a 0.23,0.22 58.1 0 1 -0.41,-0.1 c -0.6,-3.82 -2.92,-4.11 -4.55,-6.52 q -1.08,-1.59 -1.91,-3.31 a 1.01,1.03 2.9 0 0 -0.39,-0.44 l -8.09,-5.19 q -0.07,-0.05 -0.15,-0.04 -0.13,0.01 -0.27,0.03 -0.13,0.01 -0.15,-0.12 c -0.38,-2.45 -3.52,-4.86 -5.46,-6.11 q -0.43,-0.27 -0.58,-0.76 c -0.72,-2.27 -2.42,-3.36 -3.27,-5.25 q -0.75,-1.66 -1.32,-3.38 c -0.95,-2.87 -2.5,-5.35 -3.05,-8.47 -0.61,-3.41 -1.14,-6.48 -0.6,-10 q 1.12,-7.3 1.88,-9.26 1.57,-4.04 2.99,-8.14 c 1.72,-4.96 4.77,-9.17 7.02,-14 a 0.33,0.33 0 0 1 0.44,-0.16 l 0.22,0.1 a 0.1,0.09 23.7 0 1 0.05,0.12 c -2.22,4.75 -4.24,9.39 -6.64,14.24 -2.63,5.33 -2.2,10.14 -2.75,15.69 -0.92,9.29 1.81,18.48 6.7,26.29 1.49,2.37 4.16,4.87 5.75,7.92 q 0.23,0.45 0.68,0.69 3.4,1.74 5.13,2.16 8.28,2.01 14.49,7.75 1.19,1.1 -0.18,0.23 c -1.76,-1.13 -3.21,-2.4 -5.27,-3.22 q -2.01,-0.79 -3.29,-1.45 z"
       id="path75" />
    <path
       fill="#fdfdfd"
       d="m 500.95,497.07 0.45,-0.64 q 0.41,-0.58 1,-0.17 c 3,2.08 6.84,2.49 9.28,3.3 3.59,1.2 7.54,2.21 10.73,3.7 12.29,5.77 18.2,14.35 22.9,27.21 q 0.14,0.36 -0.26,0.36 l -8.29,-0.18 q -0.91,-0.02 -1.53,-0.68 c -4.02,-4.32 -7.37,-9.15 -12.38,-12.37 -13.76,-8.84 -33.95,-11.99 -48.09,-1.93 -3.28,2.33 -5.78,3.87 -9.13,1.42 -4,-2.91 -0.96,-10.9 1.39,-13.34 1.94,-2.01 6.77,-2.45 8.79,-2.99 q 2.33,-0.62 4.64,-1.33 c 6.24,-1.91 12.98,-1.32 19.59,-1.84 q 0.57,-0.05 0.91,-0.52 z"
       id="path76" />
    <path
       fill="#e6e6e5"
       d="m 623.27,502.83 2.68,2.53 a 0.26,0.26 0 0 1 -0.26,0.44 q -2.04,-0.64 -2.83,-2.7 -0.39,-1.02 0.41,-0.27 z"
       id="path77" />
    <path
       fill="#e6e6e5"
       d="m 603.16,513.66 q -1.4,1.09 -3.11,0.78 -0.23,-0.05 -0.28,-0.28 -0.03,-0.15 0.02,-0.31 0.02,-0.07 0.1,-0.07 3.62,0.08 6.56,-2.01 0.45,-0.31 0.76,-0.31 0.24,0 0.45,0.11 0.37,0.19 0.1,0.5 -1.44,1.66 -3.72,1.35 a 1.15,1.16 30 0 0 -0.88,0.24 z"
       id="path78" />
    <path
       fill="#e6e6e5"
       d="m 595.26,515.73 2.01,-0.48 a 0.31,0.31 0 0 1 0.27,0.55 q -0.96,0.75 -2.29,0.36 -0.79,-0.24 0.01,-0.43 z"
       id="path79" />
    <path
       fill="#fdfdfd"
       d="m 426.45,539 c 3.14,2.8 6.99,4.73 9.81,7.83 q 0.61,0.67 -0.19,0.24 -3.94,-2.18 -7.95,-4.93 c -1.19,-0.81 -1.67,-2.17 -2.86,-2.95 q -5.2,-3.42 -8.33,-8.81 -0.09,-0.16 -0.07,-0.34 0.02,-0.16 0.01,-0.32 a 0.03,0.03 0 0 1 0.05,-0.02 q 1.56,1.88 3.17,3.71 c 1.86,2.11 4.22,3.67 6.36,5.59 z"
       id="path80" />
    <path
       fill="#fdfdfd"
       d="M 414.62,544.17 414.05,542 q -0.13,-0.49 -0.18,-1 l -0.49,-4.73 q -0.02,-0.17 0.15,-0.2 l 0.26,-0.04 q 0.06,-0.01 0.06,0.05 0.59,4.84 1.08,6.17 0.78,2.13 0.54,3.72 -0.09,0.6 -0.7,0.6 -3.29,-0.04 -3.93,-3.34 -0.11,-0.58 0.38,-0.25 l 2.59,1.76 a 0.53,0.53 0 0 0 0.81,-0.57 z"
       id="path81" />
    <path
       fill="#fdfdfd"
       d="m 583.59,570.85 c -5.34,-4.57 -13.84,-9.2 -20.53,-10.21 q -2.04,-0.31 -3.39,-0.63 c -15.87,-3.69 -27.49,8.65 -37.35,18.65 a 1.73,1.72 19.3 0 1 -1.07,0.51 l -12.14,1.17 a 0.61,0.61 0 0 1 -0.61,-0.87 c 4.38,-9.13 11.55,-17.45 18.65,-24.58 q 1.42,-1.43 7.69,-5.54 c 6.5,-4.27 11.81,-6.48 19.42,-6.71 3.13,-0.09 6.3,-0.41 9.27,0.33 8.51,2.1 27.67,15.63 26.03,25.84 a 1.24,1.26 74.2 0 1 -0.45,0.79 c -1.56,1.31 -3.52,2.97 -5.52,1.25 z"
       id="path82" />
    <path
       fill="#fdfdfd"
       d="m 384.54,569.93 q -0.06,-0.37 0.65,-0.97 l 11.2,0.78 a 0.75,0.76 9.6 0 0 0.79,-0.57 c 0.45,-1.84 0.68,-3.66 1.37,-5.38 1.81,-4.47 2.62,-9.44 5.02,-13.57 q 0.25,-0.43 0.74,-0.47 4.03,-0.33 7.93,0.53 2.25,0.49 10.82,-0.15 0.49,-0.03 0.48,0.46 c -0.11,4.31 2.08,15.48 5.44,18.44 2.06,1.83 5.26,3.14 7.95,1.87 q 8.08,-3.84 14.94,-8.78 a 1.25,1.25 0 0 1 1.67,0.19 c 1.51,1.7 5.53,6.84 7.64,6.93 a 0.46,0.46 0 0 0 0.45,-0.61 q -1.46,-4.11 -0.26,-8.07 c 0.57,-1.9 2.62,-3.83 2.65,-6.83 a 1.1,1.12 20.2 0 0 -0.38,-0.84 c -2.34,-2.05 -5.38,-6.54 -2.65,-9.2 q 0.34,-0.33 0.78,-0.16 c 3.14,1.22 7.75,6.61 9.5,9.5 2.61,4.32 6.04,7.65 9.3,11.51 4.21,4.98 8.18,0.72 10.17,-3.58 q 0.23,-0.48 0.76,-0.43 c 5.17,0.53 3.63,4.32 4.75,7.62 a 1.74,1.74 0 0 1 -1.04,2.19 q -0.95,0.36 -1.63,-0.35 -0.41,-0.43 -0.91,-0.12 -2.55,1.52 -5.51,1.82 -0.47,0.05 -0.85,-0.24 -2.27,-1.79 -5.16,-1.81 a 1.29,1.28 67.6 0 1 -0.92,-0.39 c -2.04,-2.05 -4.52,-3.53 -6.07,-5.81 q -1.84,-2.72 -3.23,-5.78 a 2.04,2.03 68.1 0 0 -2.52,-1.08 c -1.78,0.63 -3.88,0.78 -5.2,2.18 -2.09,2.24 -1.52,7.15 -1.51,10 q 0.01,0.48 0.24,0.89 3.04,5.23 5.15,6.27 2.5,1.24 3.98,2.81 0.9,0.96 -0.39,0.71 -9.02,-1.74 -18.07,-2.14 -7.31,-0.32 -12.07,-1.04 -15.26,-2.32 -19.79,-2.55 c -4.87,-0.24 -9.98,-0.17 -14.75,-1.09 -2.25,-0.43 -4.37,-1.04 -6.71,-1.07 q -3.94,-0.04 -7.81,-0.75 c -2.21,-0.4 -4.63,-0.36 -6.94,-0.87 z m 108.59,-2.77 -0.8,-4.9 a 0.27,0.27 0 0 0 -0.54,0 q -0.41,2.49 0.6,4.73 0.1,0.21 0.33,0.24 0.14,0.03 0.28,0.05 a 0.11,0.11 0 0 0 0.13,-0.12 z m -4.08,-2.1 q -0.56,0.19 -0.97,0.6 -0.54,0.54 0.22,0.59 l 0.75,0.05 q 0.66,0.04 0.5,-0.6 l -0.11,-0.42 q -0.08,-0.32 -0.39,-0.22 z"
       id="path83" />
    <ellipse
       fill="#e6e6e5"
       cx="461.73904"
       cy="525.9433"
       transform="rotate(2.3)"
       rx="2.24"
       ry="0.19"
       id="ellipse83" />
    <path
       fill="#fdfdfd"
       d="m 601.51,559.43 c -1.38,-5.01 -4.01,-8.7 -8.64,-11.2 q -0.27,-0.14 -0.15,-0.43 l 0.13,-0.3 a 0.33,0.33 0 0 1 0.41,-0.18 q 2.85,1 5.66,2.04 c 2.85,1.04 5.97,1.02 8.98,2.09 a 0.31,0.31 0 0 1 0.14,0.49 l -6.22,7.55 q -0.22,0.27 -0.31,-0.06 z"
       id="path84" />
    <path
       fill="#fdfdfd"
       d="m 689.52,553.48 a 0.06,0.06 0 0 1 0.02,0.09 l -0.03,0.03 a 2.78,1.66 34.9 0 1 -3.23,-0.23 l -0.19,-0.14 a 2.78,1.66 34.9 0 1 -1.33,-2.95 l 0.02,-0.03 a 0.06,0.06 0 0 1 0.08,-0.02 z"
       id="path85" />
    <path
       fill="#fdfdfd"
       d="m 627.19,569.17 c 4.59,-2 8.63,-2.93 11.4,-5.47 q 2.79,-2.54 3.3,-2.88 c 3.25,-2.1 10.51,-6.81 13.62,-6.07 a 1.2,1.18 80 0 1 0.72,0.51 q 5.43,8.4 5.52,18.46 a 0.59,0.58 87.3 0 1 -0.53,0.59 c -8.64,0.85 -17.32,2.26 -25.88,2.36 -5.1,0.06 -10.42,1.29 -15.84,0.99 -0.88,-0.05 -1.96,0.63 -3.03,0.63 q -4.61,0 -9.18,0.16 a 0.45,0.45 0 0 1 -0.47,-0.43 q -0.01,-0.22 0.27,-0.49 c 2.56,-2.47 5.33,-5.99 8.79,-7.22 3.45,-1.22 8.71,-0.01 11.31,-1.14 z m -11.2,6.18 q -0.06,0.02 -0.12,0.02 0,0 0,0 0,0 0.01,0 1.45,0.13 2.88,-0.18 9.31,-2 17.27,-7.01 a 0.41,0.41 0 0 0 0.02,-0.67 q -0.2,-0.14 -0.5,0.04 -2.77,1.61 -5.74,2.77 c -3.17,1.23 -5.69,2.5 -8.55,3.75 -1.72,0.75 -3.45,0.62 -5.27,1.28 z"
       id="path86" />
    <path
       fill="#e6e6e5"
       d="m 450.96,560.63 q 0.57,0.05 0.86,0.51 0.22,0.34 -0.18,0.24 -0.61,-0.17 -1.71,-0.88 -0.18,-0.12 0.04,-0.15 0.3,-0.04 0.61,0.15 0.18,0.11 0.38,0.13 z"
       id="path87" />
    <path
       fill="#403f3d"
       d="m 492.33,562.26 0.8,4.9 a 0.11,0.11 0 0 1 -0.13,0.12 q -0.14,-0.02 -0.28,-0.05 -0.23,-0.03 -0.33,-0.24 -1.01,-2.24 -0.6,-4.73 a 0.27,0.27 0 0 1 0.54,0 z"
       id="path88" />
    <path
       fill="#403f3d"
       d="m 489.05,565.06 q 0.31,-0.1 0.39,0.22 l 0.11,0.42 q 0.16,0.64 -0.5,0.6 l -0.75,-0.05 q -0.76,-0.05 -0.22,-0.59 0.41,-0.41 0.97,-0.6 z"
       id="path89" />
    <path
       fill="#f0f0f0"
       d="m 385.19,568.96 q -0.71,0.6 -0.65,0.97 -2.71,-0.5 -5.52,-0.45 c -1.07,0.02 -1.92,-0.52 -3.03,-0.61 q -4.47,-0.39 -8.96,-0.55 c -1.11,-0.04 -2.16,-0.79 -3.03,-0.76 q -2.86,0.1 -5.71,-0.07 -0.21,-0.02 -0.2,-0.23 0.01,-0.14 0.01,-0.27 0,-0.07 0.07,-0.07 5.76,-0.51 11.51,-0.99 2.75,-0.23 5.54,0.55 5.04,1.4 9.97,2.48 z"
       id="path90" />
    <path
       fill="#403f3d"
       d="m 615.99,575.35 c 1.82,-0.66 3.55,-0.53 5.27,-1.28 2.86,-1.25 5.38,-2.52 8.55,-3.75 q 2.97,-1.16 5.74,-2.77 0.3,-0.18 0.5,-0.04 a 0.41,0.41 0 0 1 -0.02,0.67 q -7.96,5.01 -17.27,7.01 -1.43,0.31 -2.88,0.18 -0.01,0 -0.01,0 0,0 0,0 0.06,0 0.12,-0.02 z"
       id="path91" />
    <path
       fill="#fdfdfd"
       d="m 426.31,766.37 q 0.02,0 0.05,0 0.02,0 0.02,0 0,0 0,0 0,-0.01 -0.01,-0.01 -0.69,0.17 -1.86,-0.13 c -6.96,-1.75 -12.58,-2.53 -18.24,-5.81 -11.61,-6.72 -21.59,-16.01 -31.27,-25.17 -4.56,-4.31 -9.39,-9.94 -14.61,-15.39 q -5.36,-5.6 -17.24,-20.39 -1.19,-1.48 -2.79,-3.9 c -1.81,-2.74 -4.03,-5.22 -5.5,-7.99 -1.37,-2.57 -2.46,-5.33 -4.22,-7.62 -1.06,-1.37 -2.14,-2.56 -2.92,-4.15 -2.16,-4.39 -4.93,-8.37 -6.76,-12.82 -3.46,-8.36 -8.34,-16.16 -11.34,-24.37 -3.1,-8.51 -6.48,-17.15 -8.52,-25.69 q -3.86,-16.19 -5.7,-32.76 c -0.24,-2.14 -1.15,-3.36 0.65,-5.28 q 0.3,-0.33 0.73,-0.44 l 2.86,-0.71 q 0.41,-0.1 0.81,0 4.65,1.12 6.82,4.82 1.3,2.2 1.44,7.15 c 0.3,10.23 1.07,20.39 3.53,30.47 1.17,4.8 2.23,9.85 3.56,14.37 3.57,12.19 7.33,23.21 13,33.48 q 2.8,5.07 4.99,9.67 c 5.45,11.43 13.53,21.2 21.1,31.27 q 2.09,2.77 5.55,6.26 c 3.73,3.78 6.88,7.93 10.54,11.8 2.29,2.41 4.32,5.07 6.71,7.28 14.5,13.39 27.53,28.15 46.39,34.97 q 1.11,0.4 2.12,1.06 0.05,0.03 0.11,0.03 z"
       id="path92" />
    <path
       fill="#fdfdfd"
       d="m 671.95,631.16 q -4.47,2.25 -8.99,4.41 c -5.02,2.4 -10.28,3.32 -15.68,4.73 -9.23,2.4 -18.23,2.72 -27.78,3.6 -9.91,0.91 -20.29,0.43 -30.24,0.35 -1.57,-0.01 -3.24,-0.65 -5.01,-0.57 -7.05,0.31 -13.67,-0.71 -20.57,-1.07 -11.21,-0.59 -22.37,-2.58 -33.47,-4.19 -8.92,-1.3 -20.49,-3.49 -30.82,-4.86 -6.7,-0.89 -12.7,-2.61 -19.15,-3.74 -5,-0.88 -10.52,-2.65 -14.67,-3.63 q -13.15,-3.1 -26.06,-7.08 c -11.44,-3.54 -25.76,-9.56 -38.96,-13.66 -2.12,-0.66 -3.75,-1.94 -5.81,-2.63 -7.69,-2.59 -14.86,-4.94 -22.49,-8.6 -4.97,-2.39 -9.69,-4.43 -14.97,-7.01 q -7.92,-3.88 -16.14,-6.77 a 0.7,0.71 16.6 0 1 -0.45,-0.84 l 0.07,-0.24 a 0.43,0.44 13.9 0 1 0.51,-0.32 q 8.07,1.61 11.73,2.03 c 7.25,0.84 17.05,1.38 25.82,2.43 q 7.1,0.85 11.68,1.18 c 2.04,0.15 3.97,0.6 5.68,0.66 q 4.85,0.16 9.65,0.77 c 4.09,0.51 8.42,0.45 11.74,0.79 q 15.67,1.61 21.44,1.89 c 1.42,0.07 2.95,0.55 4.49,0.55 4.71,0.01 10.13,0.77 13.94,0.96 q 5.53,0.27 11.06,0.44 c 1.28,0.04 2.48,0.47 3.68,0.49 q 17.57,0.3 35.13,0.57 c 1.21,0.02 2.38,0.51 3.69,0.51 q 34.08,0.13 68.15,-0.04 c 1.78,-0.01 3.34,-0.6 5.08,-0.58 q 11.52,0.14 23.02,-0.45 c 0.95,-0.04 1.8,-0.45 2.69,-0.46 q 8.91,-0.19 17.81,-0.61 c 0.86,-0.04 1.56,-0.42 2.36,-0.45 5.1,-0.18 9.46,-0.34 15.16,-0.96 3.88,-0.42 7.99,-0.4 11.63,-0.81 q 7.29,-0.83 14.6,-1.45 10.4,-0.88 20.72,-2.41 27.66,-4.11 35.03,-6.07 4.88,-1.3 7.33,-1.77 0.53,-0.1 0.49,0.45 -0.75,9.71 -1.54,13.3 -4.74,21.52 -7.23,28.25 c -4,10.85 -6.07,18.73 -10.43,27.42 q -5.03,10.01 -5.09,10.14 c -4.02,8.53 -7.59,15.58 -12.64,22.55 q -1.36,1.87 -3.05,5.27 c -2.5,5.01 -6.55,9.52 -9.65,14.23 -3.24,4.93 -6.75,8.85 -10.41,13.17 -4.54,5.33 -8.25,12.45 -15.51,15.67 -2.48,1.1 -4.73,2.25 -7.43,2.78 -8.51,1.68 -17.73,3.91 -25.49,5.11 q -19.91,3.09 -40.1,3.17 -3.02,0.01 -6,0.52 c -0.79,0.14 -2.35,-0.49 -3.36,-0.51 -17.38,-0.19 -35.46,-2.46 -52.45,-6.15 -5.68,-1.23 -11.35,-2.16 -16.83,-3.88 q -14.2,-4.43 -28.3,-9.16 c -6.45,-2.17 -12.87,-5.26 -19.3,-7.94 -6.25,-2.6 -12.25,-6.03 -18.48,-8.96 -3.58,-1.68 -6.74,-4.02 -10.2,-6.01 Q 420.98,689.54 411,682.48 C 400.99,675.4 390.17,665.49 379.76,657 q -1.6,-1.31 -2.42,-2.4 -0.73,-0.98 0.34,-0.39 c 9.71,5.35 19.73,11.34 29.17,16 q 10.82,5.34 14.66,6.56 6.42,2.04 12.63,4.68 c 1.58,0.68 3.49,0.98 4.91,1.46 q 22.08,7.51 44.96,12.07 c 11.99,2.39 24.35,4.72 36.7,5.66 11.17,0.86 19.56,0.61 27.64,1.27 10.91,0.89 22.05,0.46 30.9,0.33 0.87,-0.01 1.8,-0.48 2.68,-0.49 5.99,-0.09 11.57,-0.2 17.81,-0.95 3.13,-0.38 6.35,-0.46 9.32,-0.89 q 25.13,-3.7 35.94,-6.4 7.41,-1.85 20.31,-7.77 c 3.49,-1.61 6.68,-4.15 10.16,-6.17 q 0.21,-0.13 0.09,-0.34 l -0.15,-0.26 q -0.13,-0.22 -0.35,-0.09 c -8.35,4.86 -17.29,9.09 -26.79,11.19 q -18.28,4.06 -37.02,4.68 c -1.95,0.07 -3.85,0.44 -5.67,0.5 -18.31,0.55 -31.34,0.05 -44.58,-0.73 -14.22,-0.84 -28.38,-2.71 -42.48,-4.73 q -4.02,-0.58 -9.62,-1.98 c -4.27,-1.08 -8.43,-1.8 -12.71,-3.15 -5.11,-1.6 -10.39,-2.59 -15.35,-4.28 q -3.72,-1.27 -7.5,-2.37 c -6.45,-1.9 -12.48,-4.8 -18.75,-7.12 q -3.72,-1.38 -7.81,-3.49 c -3.41,-1.76 -7.03,-3.27 -10.26,-5.09 q -8.8,-4.98 -17.69,-9.8 -2.13,-1.15 -6.21,-4.16 -2.51,-1.87 -6.29,-4.16 c -5.26,-3.2 -12.4,-9.54 -18.88,-14.2 -3.14,-2.26 -6.15,-4.87 -9.19,-7.03 q -6.26,-4.44 -11.58,-8.79 -3.61,-2.94 0.92,-1.86 c 4.02,0.97 7.76,3.45 12.06,4.32 8.39,1.7 17.04,5.19 24,7.15 12.87,3.62 25.46,7.73 38.61,10.37 7.99,1.61 15.26,3.46 23.83,4.86 6.17,1.01 12.64,2.66 19.46,3.36 q 3.48,0.35 8.8,1.34 c 5.67,1.04 12.11,1.07 17.16,1.68 9.03,1.08 20.01,1.61 27.18,2.31 6.86,0.67 13.8,1.39 20.59,1.63 q 23.48,0.82 46.96,-0.03 6.1,-0.23 26,-3.5 c 13.92,-2.29 28.38,-6.34 39.93,-14.05 a 0.21,0.23 57 0 0 0.07,-0.29 l -0.15,-0.26 q -0.05,-0.09 -0.15,-0.04 z"
       id="path93" />
  </g>
</svg>
