<?xml version="1.0" encoding="UTF-8" standalone="no"?>
<svg
   id="Layer_2"
   data-name="Layer 2"
   viewBox="0 0 1024 1024"
   version="1.1"
   sodipodi:docname="icon-white-cirlce.svg"
   width="1024"
   height="1024"
   inkscape:version="1.3 (0e150ed6c4, 2023-07-21)"
   xmlns:inkscape="http://www.inkscape.org/namespaces/inkscape"
   xmlns:sodipodi="http://sodipodi.sourceforge.net/DTD/sodipodi-0.dtd"
   xmlns="http://www.w3.org/2000/svg"
   xmlns:svg="http://www.w3.org/2000/svg">
  <sodipodi:namedview
     id="namedview7"
     pagecolor="#ffffff"
     bordercolor="#111111"
     borderopacity="1"
     inkscape:showpageshadow="0"
     inkscape:pageopacity="0"
     inkscape:pagecheckerboard="1"
     inkscape:deskcolor="#d1d1d1"
     inkscape:zoom="0.49648021"
     inkscape:cx="595.18988"
     inkscape:cy="295.07722"
     inkscape:window-width="2400"
     inkscape:window-height="1261"
     inkscape:window-x="3191"
     inkscape:window-y="425"
     inkscape:window-maximized="1"
     inkscape:current-layer="g2" />
  <defs
     id="defs2">
    <style
       id="style1">&#10;      .cls-1 {&#10;        clip-path: url(#clippath);&#10;      }&#10;&#10;      .cls-2 {&#10;        fill: none;&#10;      }&#10;&#10;      .cls-2, .cls-3, .cls-4, .cls-5, .cls-6, .cls-7 {&#10;        stroke-width: 0px;&#10;      }&#10;&#10;      .cls-8 {&#10;        clip-path: url(#clippath-1);&#10;      }&#10;&#10;      .cls-3 {&#10;        fill: #175645;&#10;      }&#10;&#10;      .cls-4 {&#10;        fill: #0e6e3e;&#10;      }&#10;&#10;      .cls-5 {&#10;        fill: #40ab35;&#10;      }&#10;&#10;      .cls-6 {&#10;        fill: #f4f2f2;&#10;      }&#10;&#10;      .cls-7 {&#10;        fill: #028738;&#10;      }&#10;    </style>
    <clipPath
       id="clippath">
      <rect
         class="cls-2"
         width="889.26001"
         height="889.26001"
         id="rect1"
         x="0"
         y="0" />
    </clipPath>
    <clipPath
       id="clippath-1">
      <rect
         class="cls-2"
         x="148.94"
         y="290.41"
         width="591.37"
         height="346.64999"
         id="rect2" />
    </clipPath>
  </defs>
  <g
     id="Layer_1-2"
     data-name="Layer 1">
    <g
       class="cls-1"
       clip-path="url(#clippath)"
       id="g2"
       transform="matrix(1.1515192,0,0,1.1515192,1.8104e-5,1.8104e-5)">
      <path
         class="cls-6"
         d="m 889.26,444.63 c 0,245.56 -199.07,444.63 -444.63,444.63 C 199.07,889.26 0,690.19 0,444.63 0,199.07 199.07,0 444.63,0 690.19,0 889.26,199.07 889.26,444.63"
         id="path2"
         style="fill:#ffffff" />
    </g>
    <g
       class="cls-8"
       clip-path="url(#clippath-1)"
       id="g7"
       transform="matrix(1.1539017,0,0,1.1539017,1.8175731,-23.104606)">
      <path
         class="cls-3"
         d="m 360.82,629.11 c 33.1,-17.59 45.66,-58.69 28.07,-91.77 L 276.73,326.42 c -17.59,-33.1 -58.69,-45.66 -91.77,-28.05 -33.1,17.59 -45.66,58.67 -28.07,91.77 l 112.16,210.89 c 17.59,33.1 58.67,45.66 91.77,28.07"
         id="path3" />
      <path
         class="cls-3"
         d="m 360.82,629.11 c 33.1,-17.59 45.66,-58.69 28.07,-91.77 L 276.73,326.42 c -17.59,-33.1 -58.69,-45.66 -91.77,-28.05 -33.1,17.59 -45.66,58.67 -28.07,91.77 l 112.16,210.89 c 17.59,33.1 58.67,45.66 91.77,28.07"
         id="path4" />
      <path
         class="cls-4"
         d="m 474.22,298.36 c 33.1,17.59 45.66,58.69 28.07,91.77 L 390.13,601.05 c -17.59,33.1 -58.69,45.66 -91.77,28.05 -33.1,-17.59 -45.66,-58.67 -28.07,-91.77 L 382.45,326.44 c 17.59,-33.1 58.67,-45.66 91.77,-28.07"
         id="path5" />
      <path
         class="cls-7"
         d="m 586.44,629.11 c 33.1,-17.59 45.66,-58.69 28.07,-91.77 L 502.35,326.42 c -17.59,-33.1 -58.69,-45.66 -91.77,-28.05 -33.1,17.59 -45.66,58.67 -28.07,91.77 l 112.16,210.89 c 17.59,33.1 58.67,45.66 91.77,28.07"
         id="path6" />
      <path
         class="cls-5"
         d="m 699.31,298.36 c 33.1,17.59 45.66,58.69 28.07,91.77 L 615.22,601.05 c -17.59,33.1 -58.69,45.66 -91.77,28.05 -33.1,-17.59 -45.66,-58.67 -28.07,-91.77 L 607.54,326.44 c 17.59,-33.1 58.67,-45.66 91.77,-28.07"
         id="path7" />
    </g>
  </g>
</svg>
